# xmcd
#
# Track frame offsets:
#	150
#	14269
#	31339
#	42496
#	57409
#	71410
#	84556
#	94351
#	110584
#	122408
#	137240
#	155767
#	177737
#	192460
#	204473
#	216635
#	231227
#
# Disc length: 3313 seconds
#
# Revision: 1
# Processed by: cddbd v1.5PL3 Copyright (c) Steve Scherf et al.
# Submitted via: audiograbber 1.83.01
#
DISCID=060cef11
DTITLE=Hermann Lammers Meyer - The Good Old Days
DYEAR=2004
DGENRE=Country
TTITLE0=The Good Old Days
TTITLE1=Don't Forget To Remember
TTITLE2=Wake Up Irene
TTITLE3=Instant Coffee
TTITLE4=Games People Play
TTITLE5=Keep Your Promise, Willie Thomas
TTITLE6=I Just Came To Get My Baby Out Of Here
TTITLE7=The Drinks
TTITLE8=Barstool Paradise
TTITLE9=Country Music Lovers
TTITLE10=Just When I Needed You Most
TTITLE11=Highway Heroes
TTITLE12=No, I'm Not Leaving
TTITLE13=Another Magic Moment In Showbiz
TTITLE14=I'd Rather Be
TTITLE15=Southern Comfort
TTITLE16=What's Wrong With The Way We're Doin' It Now
EXTD=
EXTT0=
EXTT1=
EXTT2=
EXTT3=
EXTT4=
EXTT5=
EXTT6=
EXTT7=
EXTT8=
EXTT9=
EXTT10=
EXTT11=
EXTT12=
EXTT13=
EXTT14=
EXTT15=
EXTT16=
PLAYORDER=
